<?xml version="1.0" encoding="iso-8859-1"?>
<!-- Generator: $$$/GeneralStr/196=Adobe Illustrator 27.6.0, SVG Export Plug-In . SVG Version: 6.00 Build 0)  -->
<svg version="1.1" id="Livello_1" xmlns="http://www.w3.org/2000/svg" xmlns:xlink="http://www.w3.org/1999/xlink" x="0px" y="0px"
	 viewBox="0 0 30 30" style="enable-background:new 0 0 30 30;" xml:space="preserve">
<g>
	<path d="M1.524,26.377c0-0.844,0.327-1.634,0.844-2.235c-0.517-0.599-0.844-1.39-0.844-2.235c0-0.872,0.327-1.635,0.844-2.262
		c-0.517-0.599-0.844-1.389-0.844-2.235c0-0.844,0.327-1.635,0.844-2.235c-0.517-0.627-0.844-1.39-0.844-2.262
		c0-1.853,1.499-3.352,3.38-3.352h6.758l-0.627-1.716c-0.054-0.136-0.109-0.3-0.109-0.436V4.167c0-2.18,1.772-3.924,3.924-3.924
		c2.18,0,3.952,1.744,3.952,3.924v1.335l1.69,3.816c0.245,0.627,0.599,1.445,0.681,2.48h3.378c2.154,0,3.924,1.772,3.924,3.924
		v7.849c0,2.18-1.771,3.952-3.924,3.952h-3.569c-0.464,1.28-1.718,2.235-3.189,2.235H4.903C3.023,29.757,1.524,28.258,1.524,26.377z
		 M4.903,27.522h12.89c0.627,0,1.144-0.49,1.144-1.145c0-0.627,0.492-1.117,1.118-1.117h4.496c0.9,0,1.663-0.763,1.663-1.69v-7.849
		c0-0.926-0.763-1.69-1.663-1.69h-4.496c-0.6,0-1.118-0.517-1.118-1.117v-0.818c0-0.708-0.245-1.253-0.517-1.88l-1.772-4.006
		c-0.054-0.163-0.109-0.327-0.109-0.464v-1.58c0-0.926-0.763-1.69-1.69-1.69c-0.899,0-1.662,0.763-1.662,1.69v3.025l0.872,2.371
		h0.926c0.627,0,1.145,0.49,1.145,1.117s-0.518,1.117-1.145,1.117H4.903c-0.627,0-1.117,0.49-1.117,1.117s0.49,1.117,1.117,1.117
		h4.469c0.655,0,1.145,0.518,1.145,1.145c0,0.627-0.49,1.117-1.145,1.117H4.903c-0.627,0-1.117,0.49-1.117,1.117
		c0,0.627,0.49,1.117,1.117,1.117h4.469c0.655,0,1.145,0.49,1.145,1.117c0,0.627-0.49,1.145-1.145,1.145H4.903
		c-0.627,0-1.117,0.49-1.117,1.117c0,0.627,0.49,1.117,1.117,1.117h4.469c0.655,0,1.145,0.49,1.145,1.117
		c0,0.627-0.49,1.117-1.145,1.117H4.903c-0.627,0-1.117,0.49-1.117,1.117C3.786,27.032,4.277,27.522,4.903,27.522z M17.794,16.294
		h4.115c0.627,0,1.117,0.49,1.117,1.117c0,0.627-0.49,1.117-1.117,1.117h-4.115c-0.627,0-1.117-0.49-1.117-1.117
		C16.676,16.785,17.167,16.294,17.794,16.294z M17.794,20.791h4.115c0.627,0,1.117,0.49,1.117,1.117c0,0.627-0.49,1.117-1.117,1.117
		h-4.115c-0.627,0-1.117-0.49-1.117-1.117C16.676,21.281,17.167,20.791,17.794,20.791z"/>
</g>
</svg>
